<svg width="80" height="80" fill="none" xmlns="http://www.w3.org/2000/svg"><path d="M70.476 43.81v11.428c0 4.95-11.94 11.429-26.667 11.429-14.727 0-26.666-6.478-26.666-11.429v-9.524" stroke="#fff" stroke-width="2" stroke-linecap="round" stroke-linejoin="round"/><path d="M18.263 46.7c3.294 4.373 13.485 8.475 25.547 8.475 14.727 0 26.667-6.115 26.667-11.375 0-2.951-3.76-6.186-9.661-8.457" stroke="#fff" stroke-width="2" stroke-linecap="round" stroke-linejoin="round"/><path d="M59.048 24.76v11.43c0 4.95-11.939 11.428-26.666 11.428-14.728 0-26.667-6.478-26.667-11.429V24.761" stroke="#F7DB45" stroke-width="2" stroke-linecap="round" stroke-linejoin="round"/><path clip-rule="evenodd" d="M32.667 35.795c14.727 0 26.666-6.115 26.666-11.375S47.394 13 32.667 13C17.939 13 6 19.16 6 24.42s11.94 11.375 26.667 11.375Z" stroke="#F7DB45" stroke-width="2" stroke-linecap="round" stroke-linejoin="round"/></svg>