<svg width="80" height="80" viewBox="0 0 80 80" fill="none" xmlns="http://www.w3.org/2000/svg">
<path d="M70.4759 43.8096V55.2381C70.4759 60.1886 58.5368 66.6667 43.8092 66.6667C29.0817 66.6667 17.1426 60.1886 17.1426 55.2381C17.1426 53.6095 17.1426 50.4349 17.1426 45.7143" stroke="white" stroke-width="2" stroke-linecap="round" stroke-linejoin="round"/>
<path d="M18.2627 46.6992C21.5572 51.0735 31.7484 55.175 43.8099 55.175C58.5375 55.175 70.4766 49.0598 70.4766 43.8C70.4766 40.8485 66.7173 37.6137 60.8156 35.3428" stroke="white" stroke-width="2" stroke-linecap="round" stroke-linejoin="round"/>
<path d="M59.0482 24.7607V36.1893C59.0482 41.1398 47.1091 47.6179 32.3815 47.6179C17.6539 47.6179 5.71484 41.1398 5.71484 36.1893C5.71484 33.7463 5.71484 27.2037 5.71484 24.7607" stroke="#F7DB45" stroke-width="2" stroke-linecap="round" stroke-linejoin="round"/>
<path fill-rule="evenodd" clip-rule="evenodd" d="M32.6667 35.7948C47.3943 35.7948 59.3333 29.6796 59.3333 24.4197C59.3333 19.1599 47.3943 13 32.6667 13C17.9391 13 6 19.1599 6 24.4197C6 29.6796 17.9391 35.7948 32.6667 35.7948Z" stroke="#F7DB45" stroke-width="2" stroke-linecap="round" stroke-linejoin="round"/>
</svg>
