<svg width="80" height="80" viewBox="0 0 80 80" fill="none" xmlns="http://www.w3.org/2000/svg">
<path fill-rule="evenodd" clip-rule="evenodd" d="M24.0318 15.0087L54.8722 15C56.8569 14.9994 58.5096 16.5228 58.6703 18.501L62.0753 60.4048C62.2457 62.5018 60.6839 64.3399 58.5868 64.5103L58.2783 64.5228H20.8095C18.7056 64.5228 17 62.8172 17 60.7133L17.0112 60.4211L20.2346 18.526C20.3873 16.5417 22.0417 15.0093 24.0318 15.0087V15.0087Z" stroke="white" stroke-width="2" stroke-linecap="round" stroke-linejoin="round"/>
<path d="M30.9998 31.2053C31.1653 30.5874 31.0951 29.9064 30.75 29.3086C30.0596 28.1129 28.5307 27.7032 27.3349 28.3936C26.3332 28.9719 25.8831 30.1388 26.1694 31.2053" stroke="white" stroke-width="2" stroke-linecap="round"/>
<path d="M53.7997 31.2053C53.9651 30.5874 53.8949 29.9064 53.5498 29.3086C52.8594 28.1129 51.3305 27.7032 50.1347 28.3936C49.133 28.9719 48.683 30.1388 48.9692 31.2053" stroke="white" stroke-width="2" stroke-linecap="round"/>
<path d="M51.4284 32.3809V34.839C51.4284 39.0469 44.2077 39.9999 39.9999 39.9999C35.792 39.9999 28.5713 38.4935 28.5713 34.2856V32.3809" stroke="#F7DB45" stroke-width="2" stroke-linecap="round" stroke-linejoin="round"/>
</svg>
