<svg width="80" height="80" fill="none" xmlns="http://www.w3.org/2000/svg"><path clip-rule="evenodd" d="M24.032 15.009 54.872 15a3.81 3.81 0 0 1 3.798 3.501l3.405 41.904a3.81 3.81 0 0 1-3.488 4.105l-.309.013H20.81a3.81 3.81 0 0 1-3.81-3.81l.011-.292 3.224-41.895a3.81 3.81 0 0 1 3.797-3.517v0Z" stroke="#fff" stroke-width="2" stroke-linecap="round" stroke-linejoin="round"/><path d="M31 31.205a2.5 2.5 0 1 0-4.83 0m27.63 0a2.5 2.5 0 1 0-4.83 0" stroke="#fff" stroke-width="2" stroke-linecap="round"/><path d="M51.428 32.38v2.459c0 4.208-7.22 5.16-11.428 5.16-4.208 0-11.429-1.506-11.429-5.713V32.38" stroke="#F7DB45" stroke-width="2" stroke-linecap="round" stroke-linejoin="round"/></svg>