<svg width="80" height="80" fill="none" xmlns="http://www.w3.org/2000/svg"><path clip-rule="evenodd" d="m31.495 19-8.333.01A4.167 4.167 0 0 0 19 23.177v8.32a4.167 4.167 0 0 0 3.68 4.138l.492.028 8.333-.01a4.167 4.167 0 0 0 4.162-4.167v-8.32a4.167 4.167 0 0 0-3.681-4.138L31.495 19Zm25 0-8.333.01A4.167 4.167 0 0 0 44 23.177v8.32a4.167 4.167 0 0 0 3.68 4.138l.492.028 8.333-.01a4.167 4.167 0 0 0 4.162-4.167v-8.32a4.167 4.167 0 0 0-3.68-4.138L56.494 19Zm-25 25-8.333.01A4.167 4.167 0 0 0 19 48.177v8.32a4.167 4.167 0 0 0 3.68 4.138l.492.028 8.333-.01a4.167 4.167 0 0 0 4.162-4.166v-8.32a4.167 4.167 0 0 0-3.681-4.139L31.495 44Z" stroke="#fff" stroke-width="2" stroke-linecap="round" stroke-linejoin="round"/><path d="M52.499 43.833V60.5m8.334-8.334H44.166" stroke="#F7DB45" stroke-width="2" stroke-linecap="round" stroke-linejoin="round"/></svg>