<svg width="80" height="80" fill="none" xmlns="http://www.w3.org/2000/svg"><path clip-rule="evenodd" d="M40 16.666c5.062 0 9.166 4.198 9.166 9.375v6.25c0 5.178-4.104 9.376-9.166 9.376-5.063 0-9.167-4.198-9.167-9.376v-6.25c0-5.177 4.104-9.375 9.167-9.375Z" stroke="#fff" stroke-width="2" stroke-linecap="round" stroke-linejoin="round"/><path d="M60.833 22.5V35m5.833-5.834h-12.5" stroke="#F7DB45" stroke-width="2" stroke-linecap="round" stroke-linejoin="round"/><path clip-rule="evenodd" d="M61.666 59.524v-2.168c0-9.483-11.41-15.69-21.666-15.69-10.257 0-21.667 6.207-21.667 15.69v2.168c0 1.643 1.386 2.976 3.095 2.976h37.143c1.71 0 3.095-1.333 3.095-2.976Z" stroke="#fff" stroke-width="2" stroke-linecap="round" stroke-linejoin="round"/></svg>