<svg width="80" height="80" fill="none" xmlns="http://www.w3.org/2000/svg"><path clip-rule="evenodd" d="m20.925 20.749 38.095-.138a7.619 7.619 0 0 1 7.646 7.592v19.082a7.619 7.619 0 0 1-7.619 7.62H20.952a7.62 7.62 0 0 1-7.619-7.62V28.368a7.62 7.62 0 0 1 7.592-7.62v0Z" stroke="#fff" stroke-width="2" stroke-linecap="round" stroke-linejoin="round"/><path d="m44.904 37.875.55-.835-.55.835a.294.294 0 0 1 .062.054l.761-.649-.76.649a.145.145 0 0 1 .03.053c.003.01.004.018.002.028-.002.013-.015.062-.095.115l-7.273 4.8a.491.491 0 0 1-.267.075.46.46 0 0 1-.304-.102c-.058-.05-.06-.087-.06-.098v-9.6c0-.009.002-.035.034-.071.106-.125.392-.19.597-.054l7.273 4.8Z" stroke="#F7DB45" stroke-width="2"/><path d="M20.815 62.523h38.233" stroke="#fff" stroke-width="2" stroke-linecap="round" stroke-linejoin="round"/></svg>