<svg width="80" height="80" fill="none" xmlns="http://www.w3.org/2000/svg"><path clip-rule="evenodd" d="m31.659 20.836-8.333.01a4.167 4.167 0 0 0-4.162 4.167v8.32a4.167 4.167 0 0 0 3.68 4.138l.492.028 8.333-.01a4.167 4.167 0 0 0 4.162-4.167v-8.32a4.167 4.167 0 0 0-3.681-4.138l-.491-.028Zm25 0-8.333.01a4.167 4.167 0 0 0-4.162 4.167v8.32a4.167 4.167 0 0 0 3.68 4.138l.492.028 8.333-.01a4.167 4.167 0 0 0 4.162-4.167v-8.32a4.167 4.167 0 0 0-3.68-4.138l-.492-.028Zm-25 25-8.333.01a4.167 4.167 0 0 0-4.162 4.167v8.32a4.167 4.167 0 0 0 3.68 4.138l.492.028 8.333-.01a4.167 4.167 0 0 0 4.162-4.166v-8.32a4.167 4.167 0 0 0-3.681-4.139l-.491-.028Z" stroke="#fff" stroke-width="2" stroke-linecap="round" stroke-linejoin="round"/><path d="M52.498 45.834v16.667m8.332-8.335H44.165" stroke="#F7DB45" stroke-width="2" stroke-linecap="round" stroke-linejoin="round"/></svg>