<svg width="80" height="80" fill="none" xmlns="http://www.w3.org/2000/svg"><path clip-rule="evenodd" d="M29.2 15h21.6c3.976 0 7.2 3.326 7.2 7.429V59.57c0 4.104-3.224 7.43-7.2 7.43H29.2c-3.976 0-7.2-3.326-7.2-7.429V22.43c0-4.104 3.224-7.43 7.2-7.43Z" stroke="#fff" stroke-width="2" stroke-linecap="round" stroke-linejoin="round"/><path d="M47.8 62c2.872 0 5.2-2.686 5.2-6V26c0-3.314-2.328-6-5.2-6H32.2c-2.872 0-5.2 2.686-5.2 6v30c0 3.314 2.328 6 5.2 6" stroke="#fff" stroke-width="2" stroke-linecap="round" stroke-linejoin="round"/><path d="M36 59h8" stroke="#F7DB45" stroke-width="2" stroke-linecap="round" stroke-linejoin="round"/></svg>