<svg width="131" height="25" fill="none" xmlns="http://www.w3.org/2000/svg"><path fill-rule="evenodd" clip-rule="evenodd" d="M20.902 22.038c0 1.235.976 2.243 2.243 2.243a2.247 2.247 0 0 0 2.243-2.243v-6.657A46.358 46.358 0 0 1 20.902 3.68v18.358ZM15.8 0c-.814 0-1.659.455-1.951 1.56-1.43 4.811-2.99 10.142-4.778 15.31C7.348 11.702 5.788 6.469 4.39 1.658 4.097.52 3.22 0 2.342 0 1.01 0-.388 1.138.1 2.893 1.822 8.97 3.87 15.31 6.145 21.908c.585 1.788 1.528 2.373 2.795 2.373 1.138 0 2.178-.618 2.796-2.34 2.34-6.696 4.42-13.1 6.208-19.243C18.367 1.073 17.067 0 15.8 0Zm109.716 15.55c0 2.795-.878 4.745-3.998 4.745-3.121 0-3.966-1.95-3.966-4.746v-4.188a46.624 46.624 0 0 1-4.486-1.575v5.763c0 4.453 2.113 8.809 8.452 8.809 6.338 0 8.483-4.356 8.483-8.809v-2.322a45.632 45.632 0 0 1-4.485-.269v2.591ZM89.24 19.775h-8.192v-5.526h7.021c1.138 0 2.08-.91 2.08-2.048s-.942-2.08-2.08-2.08h-7.02V4.595h7.735c1.203 0 2.145-.943 2.145-2.113S89.988.337 88.785.337h-10.11c-1.17 0-2.112.975-2.112 2.145v19.405c0 1.203.942 2.146 2.112 2.146H89.24c1.17 0 2.113-.943 2.113-2.146 0-1.17-.943-2.112-2.113-2.112Zm12.643-2.861c-1.723-5.168-3.283-10.401-4.68-15.212C96.91.564 96.032.044 95.154.044c-1.333 0-2.73 1.138-2.243 2.893 1.723 6.079 3.77 12.417 6.046 19.016.585 1.787 1.527 2.373 2.795 2.373 1.138 0 2.178-.618 2.795-2.34a410.456 410.456 0 0 0 4.631-14.003 46.957 46.957 0 0 1-3.764-2.189c-1.085 3.623-2.249 7.413-3.532 11.12Zm-58.78 2.816H34.91v-5.526h7.021c1.138 0 2.08-.91 2.08-2.047 0-1.138-.942-2.08-2.08-2.08h-7.02V4.55h7.736c1.202 0 2.145-.943 2.145-2.113S43.85.292 42.648.292h-10.11c-1.17 0-2.112.976-2.112 2.146v19.405c0 1.203.943 2.145 2.113 2.145h10.564c1.17 0 2.112-.942 2.112-2.145 0-1.17-.942-2.113-2.112-2.113ZM72.359 0c-.91 0-1.853.553-2.08 1.755-1.073 5.233-2.211 10.174-3.544 15.212C65.5 12.19 64.33 7.281 63.387 2.633 63.062 1.138 62.412 0 60.754 0c-1.56 0-2.34 1.17-2.665 2.665-.943 4.616-2.113 9.524-3.38 14.302a306.025 306.025 0 0 1-3.511-15.212C50.938.553 50.028 0 49.118 0c-1.105 0-2.243.78-2.243 2.08 0 .163 0 .358.065.585a341.238 341.238 0 0 0 4.68 19.08c.488 1.658 1.496 2.536 2.926 2.536 1.268 0 2.438-.845 2.893-2.47a327.85 327.85 0 0 0 3.283-12.97c1.04 4.388 2.145 8.809 3.315 12.97.456 1.625 1.626 2.47 2.893 2.47 1.398 0 2.438-.878 2.893-2.535 1.788-6.371 3.25-12.32 4.713-19.08.033-.228.065-.423.065-.586C74.601.78 73.464 0 72.36 0Z" fill="#fff"/><path fill-rule="evenodd" clip-rule="evenodd" d="M23.145 0a2.247 2.247 0 0 0-2.243 2.243V3.68a46.36 46.36 0 0 0 4.486 11.7V2.244C25.388 1.04 24.38 0 23.145 0Zm98.373.044c-6.339 0-8.452 4.324-8.452 8.777v.965c1.466.6 2.963 1.126 4.486 1.575V8.82c0-2.763.845-4.681 3.966-4.681 3.153 0 3.998 1.95 3.998 4.68v4.138c1.483.164 2.98.253 4.485.27V8.82c0-4.453-2.145-8.777-8.483-8.777Zm-12.907 0c-.813 0-1.658.456-1.95 1.56-.405 1.36-.82 2.763-1.247 4.19a46.801 46.801 0 0 0 3.765 2.19 321.014 321.014 0 0 0 1.577-5.242c.423-1.625-.877-2.698-2.145-2.698Z" fill="#fff"/></svg>