<svg width="125" height="24" fill="none" xmlns="http://www.w3.org/2000/svg"><path fill-rule="evenodd" clip-rule="evenodd" d="M20.098 21.157a2.14 2.14 0 0 0 2.156 2.153 2.159 2.159 0 0 0 2.157-2.153v-6.391a44.463 44.463 0 0 1-4.313-11.234v17.625ZM15.191 0c-.781 0-1.594.437-1.875 1.498-1.375 4.618-2.875 9.736-4.594 14.697-1.657-4.961-3.157-9.985-4.5-14.604C3.94.5 3.095 0 2.251 0 .97 0-.373 1.092.095 2.777c1.657 5.835 3.626 11.92 5.814 18.255.562 1.716 1.469 2.278 2.688 2.278 1.094 0 2.094-.593 2.688-2.247 2.25-6.428 4.25-12.575 5.97-18.473C17.66 1.03 16.41 0 15.19 0Z" fill="#F7DB45"/><path fill-rule="evenodd" clip-rule="evenodd" d="M120.687 14.927c0 2.684-.844 4.556-3.844 4.556s-3.813-1.872-3.813-4.556v-4.02a44.82 44.82 0 0 1-4.313-1.512v5.532c0 4.275 2.031 8.457 8.126 8.457 6.095 0 8.157-4.182 8.157-8.457v-2.229a43.99 43.99 0 0 1-4.313-.258v2.487Zm-34.881 4.057H77.93v-5.305h6.751c1.094 0 2-.874 2-1.966a2.013 2.013 0 0 0-2-1.997h-6.75V4.411h7.438c1.156 0 2.063-.905 2.063-2.028a2.06 2.06 0 0 0-2.063-2.06h-9.72c-1.125 0-2.032.937-2.032 2.06v18.63c0 1.154.907 2.059 2.032 2.059h10.157c1.126 0 2.032-.905 2.032-2.06a2.026 2.026 0 0 0-2.031-2.028Zm12.158-2.746c-1.657-4.961-3.157-9.986-4.5-14.604C93.181.542 92.337.043 91.493.043c-1.281 0-2.625 1.092-2.156 2.777 1.656 5.835 3.625 11.92 5.813 18.255.563 1.716 1.469 2.278 2.688 2.278 1.094 0 2.094-.593 2.688-2.247a396.105 396.105 0 0 0 4.453-13.442 44.91 44.91 0 0 1-3.62-2.101c-1.043 3.477-2.163 7.116-3.396 10.675Z" fill="#fff"/><path fill-rule="evenodd" clip-rule="evenodd" d="M41.445 18.94H33.57v-5.304h6.751c1.094 0 2-.873 2-1.966a2.013 2.013 0 0 0-2-1.997h-6.75V4.37h7.438c1.156 0 2.062-.905 2.062-2.029a2.06 2.06 0 0 0-2.062-2.06h-9.72c-1.126 0-2.032.937-2.032 2.06v18.63c0 1.154.906 2.059 2.032 2.059h10.157c1.125 0 2.032-.905 2.032-2.06a2.026 2.026 0 0 0-2.032-2.028ZM69.576 0c-.875 0-1.782.53-2 1.685a262.309 262.309 0 0 1-3.407 14.604c-1.188-4.587-2.313-9.3-3.22-13.761C60.638 1.092 60.013 0 58.419 0c-1.5 0-2.25 1.123-2.563 2.559-.906 4.43-2.032 9.143-3.25 13.73A293.42 293.42 0 0 1 49.23 1.685C48.979.531 48.104 0 47.229 0c-1.063 0-2.157.749-2.157 1.997 0 .156 0 .343.063.562a327.181 327.181 0 0 0 4.5 18.317c.47 1.591 1.438 2.434 2.813 2.434 1.22 0 2.344-.812 2.782-2.372a314.468 314.468 0 0 0 3.157-12.45c1 4.212 2.062 8.456 3.187 12.45.438 1.56 1.563 2.372 2.782 2.372 1.344 0 2.344-.843 2.782-2.434 1.719-6.116 3.125-11.827 4.532-18.317.031-.219.062-.406.062-.562C71.732.75 70.638 0 69.576 0ZM22.254 0a2.159 2.159 0 0 0-2.156 2.153v1.38a44.463 44.463 0 0 0 4.313 11.233V2.153C24.41.998 23.442 0 22.254 0Z" fill="#F7DB45"/><path fill-rule="evenodd" clip-rule="evenodd" d="M116.843.043c-6.095 0-8.126 4.15-8.126 8.425v.927a44.82 44.82 0 0 0 4.313 1.511V8.468c0-2.652.813-4.494 3.813-4.494 3.032 0 3.844 1.873 3.844 4.494v3.972a43.99 43.99 0 0 0 4.313.258v-4.23c0-4.275-2.062-8.425-8.157-8.425Zm-12.408 0c-.781 0-1.594.437-1.875 1.498-.389 1.305-.788 2.651-1.199 4.022a45.084 45.084 0 0 0 3.62 2.101 300.773 300.773 0 0 0 1.517-5.031c.406-1.56-.844-2.59-2.063-2.59Z" fill="#fff"/></svg>