<svg width="80" height="80" viewBox="0 0 80 80" fill="none" xmlns="http://www.w3.org/2000/svg">
<path fill-rule="evenodd" clip-rule="evenodd" d="M20.9236 22.7487L59.0188 22.6114C63.2267 22.5962 66.6501 25.995 66.6653 30.2029C66.6653 30.2121 66.6654 30.2212 66.6654 30.2304V49.2855C66.6654 53.4934 63.2542 56.9046 59.0463 56.9046H20.9511C16.7432 56.9046 13.332 53.4934 13.332 49.2855V30.3677C13.332 26.1706 16.7265 22.7639 20.9236 22.7487V22.7487Z" stroke="white" stroke-width="2" stroke-linecap="round" stroke-linejoin="round"/>
<path d="M44.9036 39.8747L45.4545 39.04L44.9036 39.8747C44.9314 39.893 44.9518 39.9119 44.9661 39.9287L45.7272 39.28L44.9661 39.9287C44.9879 39.9543 44.9949 39.9727 44.9975 39.9818C45.0002 39.9914 45.0006 40.0002 44.9991 40.0095C44.9969 40.0231 44.9842 40.0723 44.9036 40.1254L37.631 44.9254C37.5657 44.9685 37.4718 45 37.3636 45C37.2238 45 37.1194 44.9501 37.06 44.8978C37.0025 44.8472 37 44.8106 37 44.8V35.2001C37 35.191 37.0024 35.1655 37.0338 35.1287C37.1401 35.0041 37.4264 34.9397 37.631 35.0747L44.9036 39.8747Z" stroke="#F7DB45" stroke-width="2"/>
<path d="M20.8145 64.5234H59.0468" stroke="white" stroke-width="2" stroke-linecap="round" stroke-linejoin="round"/>
</svg>
