<svg width="80" height="80" viewBox="0 0 80 80" fill="none" xmlns="http://www.w3.org/2000/svg">
<path fill-rule="evenodd" clip-rule="evenodd" d="M29.2 15H50.8C54.7764 15 58 18.3259 58 22.4286V59.5714C58 63.6741 54.7764 67 50.8 67H29.2C25.2235 67 22 63.6741 22 59.5714V22.4286C22 18.3259 25.2235 15 29.2 15Z" stroke="white" stroke-width="2" stroke-linecap="round" stroke-linejoin="round"/>
<path d="M47.8 62C50.6719 62 53 59.3137 53 56V26C53 22.6863 50.6719 20 47.8 20H32.2C29.3281 20 27 22.6863 27 26V56C27 59.3137 29.3281 62 32.2 62" stroke="white" stroke-width="2" stroke-linecap="round" stroke-linejoin="round"/>
<path d="M36 59L44 59" stroke="#F7DB45" stroke-width="2" stroke-linecap="round" stroke-linejoin="round"/>
</svg>
