<svg width="80" height="80" viewBox="0 0 80 80" fill="none" xmlns="http://www.w3.org/2000/svg">
<path fill-rule="evenodd" clip-rule="evenodd" d="M39.9987 16.666C45.0613 16.666 49.1654 20.8633 49.1654 26.041V32.291C49.1654 37.4687 45.0613 41.666 39.9987 41.666C34.9361 41.666 30.832 37.4687 30.832 32.291V26.041C30.832 20.8633 34.9361 16.666 39.9987 16.666Z" stroke="white" stroke-width="2" stroke-linecap="round" stroke-linejoin="round"/>
<path d="M60.832 22.5V35" stroke="#F7DB45" stroke-width="2" stroke-linecap="round" stroke-linejoin="round"/>
<path d="M66.6641 29.166H54.1641" stroke="#F7DB45" stroke-width="2" stroke-linecap="round" stroke-linejoin="round"/>
<path fill-rule="evenodd" clip-rule="evenodd" d="M61.6654 59.5232V57.356C61.6654 47.8726 50.2554 41.666 39.9987 41.666C29.742 41.666 18.332 47.8726 18.332 57.356V59.5232C18.332 61.1669 19.7178 62.4994 21.4273 62.4994H58.5701C60.2796 62.4994 61.6654 61.1669 61.6654 59.5232Z" stroke="white" stroke-width="2" stroke-linecap="round" stroke-linejoin="round"/>
</svg>
