<svg width="80" height="80" viewBox="0 0 80 80" fill="none" xmlns="http://www.w3.org/2000/svg">
<path fill-rule="evenodd" clip-rule="evenodd" d="M31.659 20.8359L23.3256 20.8462C21.0264 20.849 19.1641 22.7136 19.1641 25.0128V33.3326C19.1641 35.4694 20.7726 37.2305 22.8448 37.4712L23.3359 37.4993L31.6692 37.489C33.9684 37.4862 35.8308 35.6216 35.8308 33.3224V25.0026C35.8308 22.8658 34.2223 21.1047 32.15 20.864L31.659 20.8359ZM56.6591 20.8359L48.3257 20.8462C46.0265 20.849 44.1641 22.7136 44.1641 25.0128V33.3326C44.1641 35.4694 45.7727 37.2305 47.8449 37.4712L48.3359 37.4993L56.6693 37.489C58.9685 37.4862 60.8309 35.6216 60.8309 33.3224V25.0026C60.8309 22.8658 59.2224 21.1047 57.1501 20.864L56.6591 20.8359ZM31.659 45.836L23.3256 45.8462C21.0264 45.8491 19.1641 47.7137 19.1641 50.0129V58.3327C19.1641 60.4695 20.7726 62.2306 22.8448 62.4713L23.3359 62.4993L31.6692 62.4891C33.9684 62.4863 35.8308 60.6217 35.8308 58.3225V50.0027C35.8308 47.8659 34.2223 46.1047 32.15 45.8641L31.659 45.836Z" stroke="white" stroke-width="2" stroke-linecap="round" stroke-linejoin="round"/>
<path d="M52.498 45.834V62.5007" stroke="#F7DB45" stroke-width="2" stroke-linecap="round" stroke-linejoin="round"/>
<path d="M60.8308 54.166H44.1641" stroke="#F7DB45" stroke-width="2" stroke-linecap="round" stroke-linejoin="round"/>
</svg>
