<svg width="80" height="80" viewBox="0 0 80 80" fill="none" xmlns="http://www.w3.org/2000/svg">
<path fill-rule="evenodd" clip-rule="evenodd" d="M39.9997 16.6665C45.0623 16.6665 49.1663 20.8638 49.1663 26.0415V32.2915C49.1663 37.4692 45.0623 41.6665 39.9997 41.6665C34.9371 41.6665 30.833 37.4692 30.833 32.2915V26.0415C30.833 20.8638 34.9371 16.6665 39.9997 16.6665Z" stroke="white" stroke-width="2" stroke-linecap="round" stroke-linejoin="round"/>
<path d="M60.833 22.5V35" stroke="#F7DB45" stroke-width="2" stroke-linecap="round" stroke-linejoin="round"/>
<path d="M66.666 29.1665H54.166" stroke="#F7DB45" stroke-width="2" stroke-linecap="round" stroke-linejoin="round"/>
<path fill-rule="evenodd" clip-rule="evenodd" d="M61.6663 59.5236V57.3565C61.6663 47.8731 50.2564 41.6665 39.9997 41.6665C29.743 41.6665 18.333 47.8731 18.333 57.3565V59.5236C18.333 61.1674 19.7188 62.4998 21.4282 62.4998H58.5711C60.2806 62.4998 61.6663 61.1674 61.6663 59.5236Z" stroke="white" stroke-width="2" stroke-linecap="round" stroke-linejoin="round"/>
</svg>
