<svg width="80" height="80" viewBox="0 0 80 80" fill="none" xmlns="http://www.w3.org/2000/svg">
<path fill-rule="evenodd" clip-rule="evenodd" d="M31.4949 19L23.1616 19.0102C20.8624 19.013 19 20.8777 19 23.1769V31.4966C19 33.6335 20.6085 35.3946 22.6808 35.6353L23.1718 35.6633L31.5051 35.6531C33.8043 35.6503 35.6667 33.7856 35.6667 31.4864V23.1667C35.6667 21.0299 34.0582 19.2687 31.986 19.028L31.4949 19ZM56.495 19L48.1617 19.0102C45.8625 19.013 44.0001 20.8777 44.0001 23.1769V31.4966C44.0001 33.6335 45.6086 35.3946 47.6808 35.6353L48.1719 35.6633L56.5052 35.6531C58.8044 35.6503 60.6668 33.7856 60.6668 31.4864V23.1667C60.6668 21.0299 59.0583 19.2687 56.9861 19.028L56.495 19ZM31.4949 44.0001L23.1616 44.0103C20.8624 44.0131 19 45.8778 19 48.177V56.4967C19 58.6335 20.6085 60.3947 22.6808 60.6354L23.1718 60.6634L31.5051 60.6532C33.8043 60.6504 35.6667 58.7857 35.6667 56.4865V48.1668C35.6667 46.0299 34.0582 44.2688 31.986 44.0281L31.4949 44.0001Z" stroke="white" stroke-width="2" stroke-linecap="round" stroke-linejoin="round"/>
<path d="M52.499 43.833V60.4997" stroke="#F7DB45" stroke-width="2" stroke-linecap="round" stroke-linejoin="round"/>
<path d="M60.8327 52.166H44.166" stroke="#F7DB45" stroke-width="2" stroke-linecap="round" stroke-linejoin="round"/>
</svg>
