<svg width="80" height="80" viewBox="0 0 80 80" fill="none" xmlns="http://www.w3.org/2000/svg">
<path fill-rule="evenodd" clip-rule="evenodd" d="M29.2 14H50.8C54.7764 14 58 17.3259 58 21.4286V58.5714C58 62.6741 54.7764 66 50.8 66H29.2C25.2235 66 22 62.6741 22 58.5714V21.4286C22 17.3259 25.2235 14 29.2 14Z" stroke="white" stroke-width="2" stroke-linecap="round" stroke-linejoin="round"/>
<path d="M47.8 61C50.6719 61 53 58.3137 53 55V25C53 21.6863 50.6719 19 47.8 19H32.2C29.3281 19 27 21.6863 27 25V55C27 58.3137 29.3281 61 32.2 61" stroke="white" stroke-width="2" stroke-linecap="round" stroke-linejoin="round"/>
<path d="M36 58L44 58" stroke="#F7DB45" stroke-width="2" stroke-linecap="round" stroke-linejoin="round"/>
</svg>
