<svg width="80" height="80" viewBox="0 0 80 80" fill="none" xmlns="http://www.w3.org/2000/svg">
<path fill-rule="evenodd" clip-rule="evenodd" d="M20.9246 20.7487L59.0198 20.6114C63.2277 20.5962 66.6511 23.995 66.6663 28.2029C66.6663 28.2121 66.6663 28.2212 66.6663 28.2304V47.2855C66.6663 51.4934 63.2552 54.9046 59.0473 54.9046H20.9521C16.7442 54.9046 13.333 51.4934 13.333 47.2855V28.3677C13.333 24.1706 16.7275 20.7639 20.9246 20.7487V20.7487Z" stroke="white" stroke-width="2" stroke-linecap="round" stroke-linejoin="round"/>
<path d="M44.9036 37.8747L45.4545 37.04L44.9036 37.8747C44.9314 37.893 44.9518 37.9119 44.9661 37.9287L45.7272 37.28L44.9661 37.9287C44.9879 37.9543 44.9949 37.9727 44.9975 37.9818C45.0002 37.9914 45.0006 38.0002 44.9991 38.0095C44.9969 38.0231 44.9842 38.0723 44.9036 38.1254L37.631 42.9254C37.5657 42.9685 37.4718 43 37.3636 43C37.2238 43 37.1194 42.9501 37.06 42.8978C37.0025 42.8472 37 42.8106 37 42.8V33.2001C37 33.191 37.0024 33.1655 37.0338 33.1287C37.1401 33.0041 37.4264 32.9397 37.631 33.0747L44.9036 37.8747Z" stroke="#F7DB45" stroke-width="2"/>
<path d="M20.8154 62.5234H59.0478" stroke="white" stroke-width="2" stroke-linecap="round" stroke-linejoin="round"/>
</svg>
