<svg width="131" height="25" viewBox="0 0 131 25" fill="none" xmlns="http://www.w3.org/2000/svg">
<path fill-rule="evenodd" clip-rule="evenodd" d="M20.9023 22.0381C20.9023 23.2733 21.8776 24.2809 23.1453 24.2809C24.3805 24.2809 25.3881 23.2733 25.3881 22.0381V15.3808C23.4167 11.793 21.8919 7.87496 20.9023 3.67969V22.0381Z" fill="white"/>
<path fill-rule="evenodd" clip-rule="evenodd" d="M15.7991 0C14.9864 0 14.1413 0.455092 13.8488 1.56022C12.4185 6.37096 10.8582 11.7017 9.07057 16.8699C7.34775 11.7017 5.78753 6.46851 4.38991 1.65778C4.09724 0.52013 3.21974 0 2.34207 0C1.00931 0 -0.388314 1.13765 0.0992979 2.89281C1.82194 8.97127 3.86977 15.3097 6.14507 21.9081C6.73024 23.6958 7.67294 24.281 8.94049 24.281C10.0781 24.281 11.1182 23.6633 11.7359 21.9406C14.0762 15.2447 16.1566 8.84119 17.9443 2.69787C18.3669 1.07261 17.0666 0 15.7991 0Z" fill="white"/>
<path fill-rule="evenodd" clip-rule="evenodd" d="M125.516 15.5492C125.516 18.3446 124.638 20.295 121.518 20.295C118.397 20.295 117.552 18.3446 117.552 15.5492V11.3606C116.029 10.9123 114.532 10.3858 113.066 9.78613V15.5492C113.066 20.0024 115.179 24.358 121.518 24.358C127.856 24.358 130.001 20.0024 130.001 15.5492V13.2275C128.496 13.2107 126.999 13.1217 125.516 12.9584V15.5492Z" fill="white"/>
<path fill-rule="evenodd" clip-rule="evenodd" d="M89.2394 19.7748H81.0482V14.249H88.0692C89.2069 14.249 90.1496 13.3388 90.1496 12.2012C90.1496 11.0635 89.2069 10.1208 88.0692 10.1208H81.0482V4.595H88.7843C89.987 4.595 90.9295 3.6523 90.9295 2.4823C90.9295 1.31214 89.987 0.336914 88.7843 0.336914H78.6754C77.5052 0.336914 76.5625 1.31214 76.5625 2.4823V21.8875C76.5625 23.0904 77.5052 24.0329 78.6754 24.0329H89.2394C90.4095 24.0329 91.3522 23.0904 91.3522 21.8875C91.3522 20.7175 90.4095 19.7748 89.2394 19.7748Z" fill="white"/>
<path fill-rule="evenodd" clip-rule="evenodd" d="M101.883 16.9144C100.16 11.7463 98.6 6.51278 97.2024 1.70221C96.9099 0.564391 96.0322 0.0444336 95.1546 0.0444336C93.8218 0.0444336 92.4242 1.18208 92.9118 2.93741C94.6346 9.0157 96.6823 15.3543 98.9576 21.9526C99.5427 23.7404 100.485 24.3256 101.753 24.3256C102.891 24.3256 103.931 23.7079 104.548 21.9851C106.231 17.1699 107.778 12.5084 109.179 7.98349C107.892 7.31308 106.636 6.58209 105.415 5.79428C104.33 9.41688 103.166 13.207 101.883 16.9144Z" fill="white"/>
<path fill-rule="evenodd" clip-rule="evenodd" d="M43.1027 19.73H34.9115V14.2044H41.9325C43.07 14.2044 44.0127 13.2942 44.0127 12.1566C44.0127 11.0189 43.07 10.0762 41.9325 10.0762H34.9115V4.55057H42.6476C43.8503 4.55057 44.7928 3.60786 44.7928 2.4377C44.7928 1.26753 43.8503 0.29248 42.6476 0.29248H32.5387C31.3685 0.29248 30.4258 1.26753 30.4258 2.4377V21.8429C30.4258 23.0456 31.3685 23.9881 32.5387 23.9881H43.1027C44.2728 23.9881 45.2154 23.0456 45.2154 21.8429C45.2154 20.6727 44.2728 19.73 43.1027 19.73Z" fill="white"/>
<path fill-rule="evenodd" clip-rule="evenodd" d="M72.3585 0C71.4485 0 70.5058 0.55265 70.2783 1.75533C69.2055 6.98847 68.0679 11.9291 66.7353 16.9673C65.5001 12.1893 64.3299 7.28097 63.3874 2.63283C63.0622 1.13765 62.4122 0 60.7544 0C59.1942 0 58.4142 1.17017 58.089 2.66535C57.1463 7.28097 55.9762 12.1893 54.7086 16.9673C53.4084 11.9291 52.2707 6.98847 51.198 1.75533C50.938 0.55265 50.0278 0 49.1178 0C48.0126 0 46.875 0.78011 46.875 2.08035C46.875 2.24277 46.875 2.43789 46.9399 2.66535C48.4027 9.42636 49.8654 15.3747 51.6207 21.7455C52.1081 23.4033 53.1159 24.281 54.546 24.281C55.8137 24.281 56.9839 23.4358 57.439 21.8106C58.5767 17.65 59.7143 13.2294 60.7219 8.84119C61.7621 13.2294 62.8673 17.65 64.0373 21.8106C64.4925 23.4358 65.6627 24.281 66.9302 24.281C68.328 24.281 69.3681 23.4033 69.8232 21.7455C71.6109 15.3747 73.0736 9.42636 74.5364 2.66535C74.5689 2.43789 74.6014 2.24277 74.6014 2.08035C74.6014 0.78011 73.4638 0 72.3585 0Z" fill="white"/>
<path fill-rule="evenodd" clip-rule="evenodd" d="M23.1453 0C21.8776 0 20.9023 1.04009 20.9023 2.24277V3.67977C21.8919 7.87504 23.4167 11.793 25.3881 15.3809V2.24277C25.3881 1.04009 24.3805 0 23.1453 0Z" fill="white"/>
<path fill-rule="evenodd" clip-rule="evenodd" d="M121.518 0.0444336C115.179 0.0444336 113.066 4.36756 113.066 8.82076V9.78605C114.532 10.3858 116.029 10.9122 117.552 11.3605V8.82076C117.552 6.05785 118.397 4.13993 121.518 4.13993C124.671 4.13993 125.516 6.09037 125.516 8.82076V12.9584C126.999 13.1216 128.496 13.2106 130.001 13.2274V8.82076C130.001 4.36756 127.856 0.0444336 121.518 0.0444336Z" fill="white"/>
<path fill-rule="evenodd" clip-rule="evenodd" d="M108.611 0.0444336C107.798 0.0444336 106.953 0.499529 106.661 1.60466C106.256 2.96446 105.841 4.3667 105.414 5.79428C106.635 6.58209 107.891 7.31308 109.179 7.98349C109.726 6.21634 110.254 4.46785 110.756 2.7423C111.179 1.11704 109.879 0.0444336 108.611 0.0444336Z" fill="white"/>
</svg>
